<svg width="831" height="592" viewBox="0 0 831 592" fill="none" xmlns="http://www.w3.org/2000/svg">
<path d="M372 111.431H305.77L298.78 107.429C295.194 105.375 291.133 104.295 287 104.295C282.867 104.295 278.806 105.375 275.22 107.429L268.277 111.431H202V129.307L202.039 125.481C201.921 127.482 202.369 129.475 203.329 131.234C204.29 132.993 205.725 134.447 207.472 135.43L271.437 172.162C276.166 174.87 281.52 176.295 286.969 176.295C292.419 176.295 297.773 174.87 302.502 172.162L366.467 135.468C370.041 133.452 372 131.658 371.907 129.346V125.519L372 111.431Z" fill="url(#paint0_linear_19_2)"/>
<path fill-rule="evenodd" clip-rule="evenodd" d="M298.779 62.447L366.524 101.434C369.912 103.38 372 106.98 372 110.877C372 114.774 369.912 118.375 366.524 120.32L302.563 157.141C297.839 159.862 292.483 161.295 287.031 161.295C281.579 161.295 276.223 159.862 271.499 157.141L207.476 120.321C204.088 118.374 202 114.773 202 110.876C202 106.979 204.088 103.379 207.476 101.433L275.213 62.447C278.796 60.3815 282.86 59.2943 286.996 59.2943C291.132 59.2943 295.196 60.3815 298.779 62.447Z" fill="url(#paint1_linear_19_2)"/>
<path d="M226 194.431H159.77L152.78 190.429C149.194 188.375 145.133 187.295 141 187.295C136.867 187.295 132.806 188.375 129.22 190.429L122.277 194.431H56V212.307L56.039 208.481C55.9215 210.482 56.3685 212.475 57.3291 214.234C58.2897 215.993 59.7252 217.447 61.472 218.43L125.437 255.162C130.166 257.87 135.52 259.295 140.969 259.295C146.419 259.295 151.773 257.87 156.502 255.162L220.467 218.468C224.041 216.452 226 214.658 225.907 212.346V208.519L226 194.431Z" fill="url(#paint2_linear_19_2)"/>
<path fill-rule="evenodd" clip-rule="evenodd" d="M152.779 145.447L220.524 184.434C223.912 186.38 226 189.98 226 193.877C226 197.774 223.912 201.375 220.524 203.32L156.563 240.141C151.839 242.862 146.483 244.295 141.031 244.295C135.579 244.295 130.223 242.862 125.499 240.141L61.476 203.321C58.088 201.374 56 197.773 56 193.876C56 189.979 58.088 186.379 61.476 184.433L129.213 145.447C132.796 143.381 136.86 142.294 140.996 142.294C145.132 142.294 149.196 143.381 152.779 145.447Z" fill="url(#paint3_linear_19_2)"/>
<path d="M258.5 226.5L362 293M190.5 229.5L214 245M335.25 145.25L358.75 160.75M458 167L407 137L217 247" stroke="white" stroke-width="2" stroke-linecap="round" stroke-linejoin="round" stroke-dasharray="3 4"/>
<path opacity="0.211" d="M645.403 120.905L707.569 156.835C709.097 157.717 710.366 158.985 711.248 160.513C712.13 162.04 712.594 163.773 712.594 165.537C712.594 169.128 710.678 172.447 707.569 174.239L648.875 208.172C644.544 210.68 639.627 212 634.622 212C629.618 212 624.701 210.68 620.37 208.172L561.619 174.239C560.091 173.357 558.822 172.089 557.94 170.561C557.058 169.034 556.594 167.301 556.594 165.537C556.594 161.945 558.51 158.627 561.619 156.834L623.779 120.905C627.065 119.002 630.794 118 634.591 118C638.388 118 642.117 119.002 645.403 120.905Z" fill="#724949"/>
<path d="M740.594 102.92H658.39L649.715 97.918C645.27 95.3515 640.227 94.0003 635.094 94.0003C629.962 94.0003 624.919 95.3515 620.474 97.918L611.855 102.921H529.595V125.266L529.642 120.483C529.493 122.979 530.046 125.466 531.238 127.663C532.429 129.861 534.212 131.681 536.385 132.918L615.777 178.834C621.638 182.218 628.288 184 635.056 184C641.824 184 648.473 182.218 654.335 178.834L733.726 132.966C738.162 130.446 740.594 128.204 740.479 125.314V120.53L740.594 102.92Z" fill="url(#paint4_linear_19_2)"/>
<path fill-rule="evenodd" clip-rule="evenodd" d="M649.714 42.894L733.798 91.054C738.003 93.458 740.594 97.905 740.594 102.719C740.594 107.533 738.003 111.981 733.798 114.385L654.41 159.869C648.542 163.231 641.896 165 635.132 165C628.369 165 621.723 163.231 615.855 159.869L536.39 114.385C532.185 111.98 529.594 107.533 529.594 102.719C529.594 97.905 532.185 93.458 536.39 91.054L620.465 42.894C624.917 40.3422 629.958 38.9997 635.089 38.9997C640.221 38.9997 645.262 40.3422 649.714 42.894Z" fill="url(#paint5_linear_19_2)"/>
<path fill-rule="evenodd" clip-rule="evenodd" d="M649.714 42.894L733.798 91.054C738.003 93.458 740.594 97.905 740.594 102.719C740.594 107.533 738.003 111.981 733.798 114.385L654.41 159.869C648.542 163.231 641.896 165 635.132 165C628.369 165 621.723 163.231 615.855 159.869L536.39 114.385C532.185 111.98 529.594 107.533 529.594 102.719C529.594 97.905 532.185 93.458 536.39 91.054L620.465 42.894C624.917 40.3422 629.958 38.9997 635.089 38.9997C640.221 38.9997 645.262 40.3422 649.714 42.894Z" fill="url(#paint6_linear_19_2)"/>
<path d="M594.979 110.932L596.636 111.888L594.3 113.237L592.643 112.28L589.487 114.103L586.588 112.429L589.744 110.607L583.755 107.149L585.461 106.02L601.151 103.983L604.083 105.676L594.979 110.932ZM588.849 107.393L592.08 109.258L597.241 106.278L596.719 106.36L588.849 107.393ZM608.555 118.138C606.533 119.305 604.57 119.957 602.665 120.094C600.765 120.228 599.009 119.83 597.396 118.899C595.806 117.98 595.113 116.974 595.317 115.881C595.527 114.79 596.601 113.673 598.54 112.528L601.223 110.979C603.261 109.802 605.23 109.153 607.13 109.032C609.035 108.908 610.783 109.305 612.373 110.223C613.964 111.141 614.657 112.147 614.453 113.241C614.254 114.331 613.182 115.447 611.239 116.589L608.555 118.138ZM608.604 114.762C609.814 114.063 610.526 113.461 610.741 112.954C610.962 112.444 610.722 111.986 610.021 111.581C609.342 111.189 608.577 111.05 607.726 111.165C606.876 111.28 605.884 111.654 604.752 112.289L601.207 114.336C600.014 115.025 599.288 115.629 599.028 116.149C598.78 116.668 599.014 117.135 599.732 117.55C600.439 117.958 601.226 118.093 602.093 117.956C602.966 117.816 603.979 117.419 605.133 116.765L608.604 114.762ZM618.535 124.531L620.191 125.488L617.855 126.837L616.199 125.88L613.043 127.702L610.143 126.028L613.299 124.206L607.31 120.748L609.017 119.62L624.706 117.582L627.638 119.275L618.535 124.531ZM612.405 120.992L615.635 122.857L620.796 119.878L620.274 119.959L612.405 120.992Z" fill="#0D1421"/>
<path opacity="0.211" d="M645.403 120.905L707.569 156.835C709.097 157.717 710.366 158.985 711.248 160.513C712.13 162.04 712.594 163.773 712.594 165.537C712.594 169.128 710.678 172.447 707.569 174.239L648.875 208.172C644.544 210.68 639.627 212 634.622 212C629.618 212 624.701 210.68 620.37 208.172L561.619 174.239C560.091 173.357 558.822 172.089 557.94 170.561C557.058 169.034 556.594 167.301 556.594 165.537C556.594 161.945 558.51 158.627 561.619 156.834L623.779 120.905C627.065 119.002 630.794 118 634.591 118C638.388 118 642.117 119.002 645.403 120.905Z" fill="#724949"/>
<path d="M740.594 102.92H658.39L649.715 97.918C645.27 95.3515 640.227 94.0003 635.094 94.0003C629.962 94.0003 624.919 95.3515 620.474 97.918L611.855 102.921H529.595V125.266L529.642 120.483C529.493 122.979 530.046 125.466 531.238 127.663C532.429 129.861 534.212 131.681 536.385 132.918L615.777 178.834C621.638 182.218 628.288 184 635.056 184C641.824 184 648.473 182.218 654.335 178.834L733.726 132.966C738.162 130.446 740.594 128.204 740.479 125.314V120.53L740.594 102.92Z" fill="url(#paint7_linear_19_2)"/>
<path fill-rule="evenodd" clip-rule="evenodd" d="M649.714 42.894L733.798 91.054C738.003 93.458 740.594 97.905 740.594 102.719C740.594 107.533 738.003 111.981 733.798 114.385L654.41 159.869C648.542 163.231 641.896 165 635.132 165C628.369 165 621.723 163.231 615.855 159.869L536.39 114.385C532.185 111.98 529.594 107.533 529.594 102.719C529.594 97.905 532.185 93.458 536.39 91.054L620.465 42.894C624.917 40.3422 629.958 38.9997 635.089 38.9997C640.221 38.9997 645.262 40.3422 649.714 42.894Z" fill="url(#paint8_linear_19_2)"/>
<path fill-rule="evenodd" clip-rule="evenodd" d="M649.714 42.894L733.798 91.054C738.003 93.458 740.594 97.905 740.594 102.719C740.594 107.533 738.003 111.981 733.798 114.385L654.41 159.869C648.542 163.231 641.896 165 635.132 165C628.369 165 621.723 163.231 615.855 159.869L536.39 114.385C532.185 111.98 529.594 107.533 529.594 102.719C529.594 97.905 532.185 93.458 536.39 91.054L620.465 42.894C624.917 40.3422 629.958 38.9997 635.089 38.9997C640.221 38.9997 645.262 40.3422 649.714 42.894Z" fill="url(#paint9_linear_19_2)"/>
<path d="M594.979 110.932L596.636 111.888L594.3 113.237L592.643 112.28L589.487 114.103L586.588 112.429L589.744 110.607L583.755 107.149L585.461 106.02L601.151 103.983L604.083 105.676L594.979 110.932ZM588.849 107.393L592.08 109.258L597.241 106.278L596.719 106.36L588.849 107.393ZM608.555 118.138C606.533 119.305 604.57 119.957 602.665 120.094C600.765 120.228 599.009 119.83 597.396 118.899C595.806 117.98 595.113 116.974 595.317 115.881C595.527 114.79 596.601 113.673 598.54 112.528L601.223 110.979C603.261 109.802 605.23 109.153 607.13 109.032C609.035 108.908 610.783 109.305 612.373 110.223C613.964 111.141 614.657 112.147 614.453 113.241C614.254 114.331 613.182 115.447 611.239 116.589L608.555 118.138ZM608.604 114.762C609.814 114.063 610.526 113.461 610.741 112.954C610.962 112.444 610.722 111.986 610.021 111.581C609.342 111.189 608.577 111.05 607.726 111.165C606.876 111.28 605.884 111.654 604.752 112.289L601.207 114.336C600.014 115.025 599.288 115.629 599.028 116.149C598.78 116.668 599.014 117.135 599.732 117.55C600.439 117.958 601.226 118.093 602.093 117.956C602.966 117.816 603.979 117.419 605.133 116.765L608.604 114.762ZM618.535 124.531L620.191 125.488L617.855 126.837L616.199 125.88L613.043 127.702L610.143 126.028L613.299 124.206L607.31 120.748L609.017 119.62L624.706 117.582L627.638 119.275L618.535 124.531ZM612.405 120.992L615.635 122.857L620.796 119.878L620.274 119.959L612.405 120.992Z" fill="#0D1421"/>
<g clip-path="url(#clip0_19_2)">
<path d="M659.787 91L638.136 91M648.961 84.75L648.961 97.25M664.117 102.25C653.292 108.5 640.301 107.25 628.155 103.863C627.524 103.682 627.019 103.382 626.726 103.013C620.816 96 618.65 88.5 629.476 82.25L644.631 73.5C645.205 73.1685 645.984 72.9822 646.796 72.9822C647.608 72.9822 648.387 73.1685 648.961 73.5C653.292 76 661.302 77.625 668.36 77.9C669.211 77.9386 670.01 78.1511 670.613 78.4995C671.216 78.8478 671.584 79.3089 671.651 79.8C672.128 83.9 674.942 88.5 679.272 91C679.846 91.3315 680.169 91.7812 680.169 92.25C680.169 92.7189 679.846 93.1685 679.272 93.5L664.117 102.25Z" stroke="#EE495B" stroke-width="4" stroke-linecap="round" stroke-linejoin="round"/>
</g>
<path d="M453.875 214.125L575.625 144.875" stroke="white" stroke-width="2" stroke-linecap="round" stroke-linejoin="round" stroke-dasharray="3 4"/>
<path opacity="0.211" d="M504.403 207.905L566.569 243.835C568.097 244.717 569.366 245.985 570.248 247.513C571.13 249.04 571.594 250.773 571.594 252.537C571.594 256.128 569.678 259.447 566.569 261.239L507.875 295.172C503.544 297.68 498.627 299 493.622 299C488.618 299 483.701 297.68 479.37 295.172L420.619 261.239C419.091 260.357 417.822 259.089 416.94 257.561C416.058 256.034 415.594 254.301 415.594 252.537C415.594 248.945 417.51 245.627 420.619 243.834L482.779 207.905C486.065 206.002 489.794 205 493.591 205C497.388 205 501.117 206.002 504.403 207.905Z" fill="#724949"/>
<path d="M599.594 189.92H517.39L508.715 184.918C504.27 182.351 499.227 181 494.094 181C488.962 181 483.919 182.351 479.474 184.918L470.855 189.921H388.595V212.266L388.642 207.483C388.493 209.978 389.046 212.466 390.238 214.663C391.429 216.861 393.212 218.681 395.385 219.918L474.777 265.834C480.638 269.218 487.288 271 494.056 271C500.824 271 507.473 269.218 513.335 265.834L592.726 219.966C597.162 217.446 599.594 215.204 599.479 212.314V207.53L599.594 189.92Z" fill="url(#paint10_linear_19_2)"/>
<path fill-rule="evenodd" clip-rule="evenodd" d="M508.714 129.894L592.798 178.054C597.003 180.458 599.594 184.905 599.594 189.719C599.594 194.533 597.003 198.981 592.798 201.385L513.41 246.869C507.542 250.231 500.896 252 494.132 252C487.369 252 480.723 250.231 474.855 246.869L395.39 201.385C391.185 198.98 388.594 194.533 388.594 189.719C388.594 184.905 391.185 180.458 395.39 178.054L479.465 129.894C483.917 127.342 488.958 126 494.089 126C499.221 126 504.262 127.342 508.714 129.894Z" fill="url(#paint11_linear_19_2)"/>
<path fill-rule="evenodd" clip-rule="evenodd" d="M488.071 192.51C483.575 195.106 476.257 195.09 471.727 192.476C467.197 189.86 467.171 185.636 471.668 183.04C476.165 180.443 483.483 180.458 488.012 183.073C492.541 185.688 492.567 189.913 488.071 192.51Z" fill="#FEFEFE"/>
<path d="M309.5 299.5L431.25 230.25" stroke="white" stroke-width="2" stroke-linecap="round" stroke-linejoin="round" stroke-dasharray="3 4"/>
<path opacity="0.211" d="M356.403 293.905L418.569 329.835C420.097 330.717 421.366 331.985 422.248 333.513C423.13 335.04 423.594 336.773 423.594 338.537C423.594 342.128 421.678 345.447 418.569 347.239L359.875 381.172C355.544 383.68 350.627 385 345.622 385C340.618 385 335.701 383.68 331.37 381.172L272.619 347.239C271.091 346.357 269.822 345.089 268.94 343.561C268.058 342.034 267.594 340.301 267.594 338.537C267.594 334.945 269.51 331.627 272.619 329.834L334.779 293.905C338.065 292.002 341.794 291 345.591 291C349.388 291 353.117 292.002 356.403 293.905Z" fill="#724949"/>
<path d="M451.594 275.92H369.39L360.715 270.918C356.27 268.351 351.227 267 346.094 267C340.962 267 335.919 268.351 331.474 270.918L322.855 275.921H240.595V298.266L240.642 293.483C240.493 295.979 241.046 298.466 242.238 300.663C243.429 302.861 245.212 304.681 247.385 305.918L326.777 351.834C332.638 355.218 339.288 357 346.056 357C352.824 357 359.473 355.218 365.335 351.834L444.726 305.966C449.162 303.446 451.594 301.204 451.479 298.314V293.53L451.594 275.92Z" fill="url(#paint12_linear_19_2)"/>
<path fill-rule="evenodd" clip-rule="evenodd" d="M360.714 215.894L444.798 264.054C449.003 266.458 451.594 270.905 451.594 275.719C451.594 280.533 449.003 284.981 444.798 287.385L365.41 332.869C359.542 336.231 352.896 338 346.132 338C339.369 338 332.723 336.231 326.855 332.869L247.39 287.385C243.185 284.98 240.594 280.533 240.594 275.719C240.594 270.905 243.185 266.458 247.39 264.054L331.465 215.894C335.917 213.342 340.958 212 346.089 212C351.221 212 356.262 213.342 360.714 215.894Z" fill="url(#paint13_linear_19_2)"/>
<path d="M164.5 387.5L286.25 318.25M407.5 317.5L511 384" stroke="white" stroke-width="2" stroke-linecap="round" stroke-linejoin="round" stroke-dasharray="3 4"/>
<path opacity="0.211" d="M207.403 379.905L269.569 415.835C271.097 416.717 272.366 417.985 273.248 419.513C274.13 421.04 274.594 422.773 274.594 424.537C274.594 428.128 272.678 431.447 269.569 433.239L210.875 467.172C206.544 469.68 201.627 471 196.622 471C191.618 471 186.701 469.68 182.37 467.172L123.619 433.239C122.091 432.357 120.822 431.089 119.94 429.561C119.058 428.034 118.594 426.301 118.594 424.537C118.594 420.945 120.51 417.627 123.619 415.834L185.779 379.905C189.065 378.002 192.794 377 196.591 377C200.388 377 204.117 378.002 207.403 379.905Z" fill="#724949"/>
<path d="M302.594 361.92H220.39L211.715 356.918C207.27 354.351 202.227 353 197.094 353C191.962 353 186.919 354.351 182.474 356.918L173.855 361.921H91.595V384.266L91.642 379.483C91.4933 381.979 92.046 384.466 93.2377 386.663C94.4294 388.861 96.2124 390.681 98.385 391.918L177.777 437.834C183.638 441.218 190.288 443 197.056 443C203.824 443 210.473 441.218 216.335 437.834L295.726 391.966C300.162 389.446 302.594 387.204 302.479 384.314V379.53L302.594 361.92Z" fill="url(#paint14_linear_19_2)"/>
<path fill-rule="evenodd" clip-rule="evenodd" d="M211.714 301.894L295.798 350.054C300.003 352.458 302.594 356.905 302.594 361.719C302.594 366.533 300.003 370.981 295.798 373.385L216.41 418.869C210.542 422.231 203.896 424 197.132 424C190.369 424 183.723 422.231 177.855 418.869L98.39 373.385C94.185 370.98 91.594 366.533 91.594 361.719C91.594 356.905 94.185 352.458 98.39 350.054L182.465 301.894C186.917 299.342 191.958 298 197.089 298C202.221 298 207.262 299.342 211.714 301.894Z" fill="url(#paint15_linear_19_2)"/>
<path fill-rule="evenodd" clip-rule="evenodd" d="M193.656 345.699C193.541 347.674 195.043 350.179 198.106 353.168L198.389 353.44L198.679 353.717L198.979 353.995L199.111 354.116L199.368 354.356L199.678 354.651L199.978 354.941L200.209 355.168L200.433 355.392L200.648 355.613L200.857 355.83L201.057 356.043L201.251 356.253L201.345 356.357L201.528 356.562L201.66 356.712L201.788 356.862L201.991 357.106L202.031 357.153L202.221 357.391L202.398 357.622L202.467 357.712L202.597 357.892L202.659 357.98L202.778 358.154C203.434 359.128 203.733 359.926 203.68 360.539C203.603 361.434 202.72 361.925 200.71 362.035C198.115 361.656 195.641 360.907 193.54 359.791C193.799 359.431 193.993 359.008 194.119 358.522C194.184 358.273 194.231 358.005 194.262 357.719L194.276 357.575L194.29 357.385L194.298 357.193L194.303 356.993C194.306 356.678 194.293 356.343 194.261 355.991L194.244 355.813L194.218 355.583L194.188 355.346L194.153 355.106L194.114 354.86L194.092 354.735L194.046 354.481L193.995 354.224L193.925 353.894L193.847 353.556L193.78 353.279L193.709 352.999L193.632 352.713L193.53 352.348L193.421 351.976L193.329 351.672L193.233 351.364L193.131 351.05L192.97 350.57L192.857 350.244L192.739 349.914L192.617 349.576L192.458 349.149L192.292 348.714L192.082 348.181L191.937 347.819L191.712 347.267L191.582 346.958C191.973 346.671 192.398 346.395 192.857 346.13C193.047 346.02 193.241 345.914 193.439 345.81L193.656 345.699ZM189.845 348.647L189.919 348.834L190.116 349.346L190.242 349.68L190.362 350.01L190.479 350.335L190.592 350.655L190.699 350.969L190.803 351.279L190.903 351.583L190.997 351.882L191.087 352.176L191.173 352.464L191.254 352.749L191.33 353.028L191.403 353.301L191.503 353.701L191.594 354.091L191.649 354.345L191.699 354.592L191.745 354.835L191.787 355.074L191.807 355.19L191.841 355.42L191.871 355.645L191.898 355.865L191.918 356.08L191.928 356.184L191.943 356.392L191.954 356.593L191.96 356.79C191.962 356.876 191.963 356.96 191.962 357.044L191.959 357.167L191.953 357.348C191.938 357.703 191.886 358.055 191.8 358.399C191.771 358.51 191.737 358.619 191.698 358.727C187.718 355.797 187.093 351.853 189.845 348.647Z" fill="#FEFEFE"/>
<path fill-rule="evenodd" clip-rule="evenodd" d="M203.416 343.353C202.576 343.781 202.016 344.334 201.756 345.017C201.367 346.037 201.702 347.297 202.737 348.808L202.817 348.922L202.957 349.119C203.233 349.494 203.549 349.884 203.907 350.291L204.062 350.466L204.261 350.683L204.363 350.793L204.573 351.015L204.68 351.127L204.901 351.353L205.015 351.467L205.13 351.583L205.366 351.814L205.487 351.932L205.735 352.168L205.99 352.408L206.313 352.705L206.588 352.965C206.678 353.05 206.768 353.135 206.856 353.221L207.116 353.474L207.366 353.724L207.61 353.97L207.844 354.214L208.07 354.454C211.252 357.872 211.884 360.297 210.11 361.843C208.456 362.163 206.776 362.33 205.091 362.342C205.724 361.901 206.085 361.33 206.147 360.632C206.201 360.024 206.019 359.324 205.604 358.528L205.543 358.414L205.442 358.232C205.382 358.13 205.32 358.026 205.253 357.92L205.151 357.762L205.021 357.568L204.954 357.47L204.884 357.371L204.739 357.171L204.664 357.069L204.507 356.864C204.277 356.569 204.023 356.264 203.746 355.947L203.606 355.788L203.402 355.564L203.191 355.334L202.971 355.104L202.627 354.749L202.389 354.509L202.08 354.204L201.759 353.894L201.627 353.768L201.357 353.513L200.889 353.079L200.636 352.842L200.39 352.608L200.153 352.376L200.036 352.262L199.808 352.034L199.587 351.809L199.373 351.587L199.268 351.477L199.064 351.259L198.868 351.044C198.803 350.973 198.74 350.902 198.678 350.831L198.495 350.621L198.319 350.414C198.289 350.38 198.261 350.345 198.233 350.311L198.066 350.108L197.831 349.808L197.681 349.611C197.585 349.481 197.493 349.351 197.405 349.225L197.276 349.035L197.215 348.943L197.095 348.758C195.986 346.982 195.825 345.57 196.584 344.497C198.674 343.832 200.966 343.452 203.292 343.357L203.416 343.353Z" fill="#FEFEFE"/>
<path fill-rule="evenodd" clip-rule="evenodd" d="M216.199 346.099C216.308 346.162 216.416 346.226 216.522 346.291C214.499 346.453 213.201 347.426 212.852 349.197C212.802 349.448 212.772 349.718 212.758 350.007L212.753 350.152L212.752 350.342C212.752 350.427 212.753 350.514 212.756 350.602L212.762 350.736L212.775 350.94L212.793 351.15C212.815 351.375 212.845 351.61 212.883 351.852L212.915 352.035L212.957 352.27L213.004 352.508L213.056 352.752L213.113 353L213.176 353.253L213.244 353.513L213.354 353.909L213.433 354.18L213.56 354.595L213.653 354.879L213.7 355.022L213.8 355.312L213.852 355.46L213.958 355.758L214.069 356.061L214.185 356.369L214.307 356.681L214.433 357L214.565 357.323L214.7 357.65L214.84 357.983L214.987 358.321L215.137 358.664L215.293 359.012L215.454 359.365L215.62 359.722L215.706 359.907C214.959 360.292 214.163 360.63 213.332 360.92C213.847 359.346 213.144 357.368 211.261 355.019L211.075 354.789C210.811 354.47 210.538 354.158 210.258 353.853L210.035 353.613L209.805 353.37L209.568 353.125L209.446 353.002L209.198 352.754L209.071 352.629L208.811 352.377C208.678 352.249 208.544 352.122 208.409 351.996L207.883 351.507L207.641 351.28L207.407 351.055L207.181 350.833L206.963 350.615L206.857 350.508L206.65 350.295L206.55 350.188L206.354 349.981L206.26 349.878L206.077 349.674L205.987 349.574L205.816 349.376L205.732 349.278L205.572 349.085L205.494 348.989L205.346 348.801L205.273 348.708L205.203 348.616L205.07 348.435L205.007 348.345L204.885 348.168C204.799 348.042 204.716 347.913 204.636 347.783L204.562 347.658L204.471 347.496C203.971 346.582 203.835 345.832 204.053 345.253C204.413 344.297 205.882 343.727 208.69 343.588C211.433 344.013 214.036 344.85 216.199 346.099Z" fill="#FEFEFE"/>
<path fill-rule="evenodd" clip-rule="evenodd" d="M218.675 347.786C222.381 351.171 222.045 355.604 217.655 358.782L217.487 358.402L217.282 357.919L217.15 357.604L217.023 357.294L216.9 356.988L216.782 356.686L216.667 356.391L216.557 356.098L216.453 355.812L216.351 355.529L216.255 355.252L216.163 354.979L216.076 354.711L215.993 354.448L215.914 354.188L215.84 353.935L215.77 353.686L215.705 353.442L215.644 353.202L215.588 352.967L215.536 352.737L215.487 352.512L215.444 352.291L215.405 352.075L215.388 351.969L215.355 351.76L215.328 351.556L215.304 351.357L215.284 351.163L215.271 350.973L215.263 350.833L215.257 350.698L215.253 350.519V350.433L215.254 350.347L215.259 350.179C215.266 350.024 215.279 349.876 215.297 349.733L215.312 349.629L215.338 349.482L215.368 349.335C215.595 348.343 216.116 347.84 216.838 347.702C217.258 347.623 217.824 347.639 218.529 347.76L218.675 347.786Z" fill="#FEFEFE"/>
<path opacity="0.309" d="M506.403 382.905L568.569 418.835C570.097 419.717 571.366 420.985 572.248 422.513C573.13 424.04 573.594 425.773 573.594 427.537C573.594 431.128 571.678 434.447 568.569 436.239L509.875 470.172C505.544 472.68 500.627 474 495.622 474C490.618 474 485.701 472.68 481.37 470.172L422.619 436.239C421.091 435.357 419.822 434.089 418.94 432.561C418.058 431.034 417.594 429.301 417.594 427.537C417.594 423.945 419.51 420.627 422.619 418.834L484.779 382.905C488.065 381.002 491.794 380 495.591 380C499.388 380 503.117 381.002 506.403 382.905Z" fill="#724949"/>
<path d="M601.594 364.92H519.39L510.715 359.918C506.27 357.351 501.227 356 496.094 356C490.962 356 485.919 357.351 481.474 359.918L472.855 364.921H390.595V387.266L390.642 382.483C390.493 384.979 391.046 387.466 392.238 389.663C393.429 391.861 395.212 393.681 397.385 394.918L476.777 440.834C482.638 444.218 489.288 446 496.056 446C502.824 446 509.473 444.218 515.335 440.834L594.726 394.966C599.162 392.446 601.594 390.204 601.479 387.314V382.53L601.594 364.92Z" fill="url(#paint16_linear_19_2)"/>
<path fill-rule="evenodd" clip-rule="evenodd" d="M510.714 304.894L594.798 353.054C599.003 355.458 601.594 359.905 601.594 364.719C601.594 369.533 599.003 373.981 594.798 376.385L515.41 421.869C509.542 425.231 502.896 427 496.132 427C489.369 427 482.723 425.231 476.855 421.869L397.39 376.385C393.185 373.98 390.594 369.533 390.594 364.719C390.594 359.905 393.185 355.458 397.39 353.054L481.465 304.894C485.917 302.342 490.958 301 496.089 301C501.221 301 506.262 302.342 510.714 304.894Z" fill="url(#paint17_linear_19_2)"/>
<path d="M452.238 400.501L350 468.926" stroke="white" stroke-width="2" stroke-linecap="round" stroke-linejoin="round" stroke-dasharray="3 4"/>
<path d="M382.598 451.83C383.268 452.212 383.913 452.602 384.533 453H396.337V471C396.199 477.647 391.704 484.253 382.837 489.306C364.743 499.618 335.302 499.556 317.077 489.17C308.23 484.13 303.652 477.583 303.352 471H303.337V453H314.694C315.395 452.543 316.11 452.108 316.837 451.694C334.931 441.382 364.373 441.444 382.598 451.83Z" fill="url(#paint18_linear_19_2)"/>
<path fill-rule="evenodd" clip-rule="evenodd" d="M382.837 472.306C364.743 482.618 335.302 482.556 317.077 472.17C298.851 461.785 298.743 445.006 316.837 434.694C334.931 424.382 364.372 424.444 382.597 434.83C400.822 445.217 400.93 461.995 382.837 472.306Z" fill="url(#paint19_linear_19_2)"/>
<path fill-rule="evenodd" clip-rule="evenodd" d="M345.333 446C345.235 445.952 345.14 445.898 345.05 445.837L345.333 446Z" fill="#020303"/>
<path d="M451.98 194.932L453.636 195.888L451.3 197.237L449.644 196.28L446.487 198.103L443.588 196.429L446.744 194.607L440.755 191.149L442.462 190.02L458.151 187.983L461.083 189.676L451.98 194.932ZM445.85 191.393L449.08 193.258L454.241 190.278L453.719 190.36L445.85 191.393ZM465.555 202.138C463.533 203.305 461.57 203.957 459.665 204.094C457.765 204.228 456.009 203.83 454.397 202.899C452.806 201.98 452.113 200.974 452.317 199.881C452.527 198.79 453.601 197.673 455.54 196.528L458.224 194.979C460.261 193.802 462.23 193.153 464.13 193.032C466.035 192.908 467.783 193.305 469.374 194.223C470.964 195.141 471.657 196.147 471.453 197.241C471.254 198.331 470.183 199.447 468.239 200.589L465.555 202.138ZM465.604 198.762C466.814 198.063 467.526 197.461 467.742 196.954C467.963 196.444 467.722 195.986 467.021 195.581C466.342 195.189 465.577 195.05 464.726 195.165C463.876 195.28 462.885 195.654 461.752 196.289L458.207 198.336C457.014 199.025 456.288 199.629 456.028 200.149C455.78 200.668 456.015 201.135 456.733 201.55C457.439 201.958 458.226 202.093 459.093 201.956C459.966 201.816 460.979 201.419 462.134 200.765L465.604 198.762ZM475.535 208.531L477.191 209.488L474.855 210.837L473.199 209.88L470.043 211.702L467.143 210.028L470.299 208.206L464.31 204.748L466.017 203.62L481.706 201.582L484.639 203.275L475.535 208.531ZM469.405 204.992L472.635 206.857L477.796 203.878L477.274 203.959L469.405 204.992Z" fill="#0D1421"/>
<g clip-path="url(#clip1_19_2)">
<path d="M516.787 175L495.136 175M505.961 168.75L505.961 181.25M521.117 186.25C510.292 192.5 497.301 191.25 485.155 187.862C484.524 187.682 484.019 187.382 483.726 187.012C477.816 180 475.65 172.5 486.476 166.25L501.631 157.5C502.205 157.168 502.984 156.982 503.796 156.982C504.608 156.982 505.387 157.168 505.961 157.5C510.292 160 518.302 161.625 525.36 161.9C526.211 161.939 527.01 162.151 527.613 162.499C528.216 162.848 528.584 163.309 528.651 163.8C529.128 167.9 531.942 172.5 536.272 175C536.846 175.332 537.169 175.781 537.169 176.25C537.169 176.719 536.846 177.168 536.272 177.5L521.117 186.25Z" stroke="#EE495B" stroke-width="4" stroke-linecap="round" stroke-linejoin="round"/>
</g>
<path d="M305.98 284.932L307.636 285.888L305.3 287.237L303.644 286.28L300.487 288.103L297.588 286.429L300.744 284.607L294.755 281.149L296.462 280.02L312.151 277.983L315.083 279.676L305.98 284.932ZM299.85 281.393L303.08 283.258L308.241 280.278L307.719 280.36L299.85 281.393ZM319.555 292.138C317.533 293.305 315.57 293.957 313.665 294.094C311.765 294.228 310.009 293.83 308.397 292.899C306.806 291.98 306.113 290.974 306.317 289.881C306.527 288.79 307.601 287.673 309.54 286.528L312.224 284.979C314.261 283.802 316.23 283.153 318.13 283.032C320.035 282.908 321.783 283.305 323.374 284.223C324.964 285.141 325.657 286.147 325.453 287.241C325.254 288.331 324.183 289.447 322.239 290.589L319.555 292.138ZM319.604 288.762C320.814 288.063 321.526 287.461 321.742 286.954C321.963 286.444 321.722 285.986 321.021 285.581C320.342 285.189 319.577 285.05 318.726 285.165C317.876 285.28 316.885 285.654 315.752 286.289L312.207 288.336C311.014 289.025 310.288 289.629 310.028 290.149C309.78 290.668 310.015 291.135 310.733 291.55C311.439 291.958 312.226 292.093 313.093 291.956C313.966 291.816 314.979 291.419 316.134 290.765L319.604 288.762ZM329.535 298.531L331.191 299.488L328.855 300.837L327.199 299.88L324.043 301.702L321.143 300.028L324.299 298.206L318.31 294.748L320.017 293.62L335.706 291.582L338.639 293.275L329.535 298.531ZM323.405 294.992L326.635 296.857L331.796 293.878L331.274 293.959L323.405 294.992Z" fill="#0D1421"/>
<g clip-path="url(#clip2_19_2)">
<path d="M370.787 265L349.136 265M359.962 258.75L359.962 271.25M375.117 276.25C364.292 282.5 351.301 281.25 339.155 277.862C338.524 277.682 338.019 277.382 337.726 277.012C331.816 270 329.651 262.5 340.476 256.25L355.631 247.5C356.206 247.168 356.984 246.982 357.796 246.982C358.608 246.982 359.387 247.168 359.962 247.5C364.292 250 372.302 251.625 379.36 251.9C380.211 251.939 381.01 252.151 381.613 252.499C382.216 252.848 382.585 253.309 382.651 253.8C383.128 257.9 385.942 262.5 390.272 265C390.847 265.332 391.169 265.781 391.169 266.25C391.169 266.719 390.847 267.168 390.272 267.5L375.117 276.25Z" stroke="#EE495B" stroke-width="4" stroke-linecap="round" stroke-linejoin="round"/>
</g>
<path d="M101.98 201.932L103.636 202.888L101.3 204.237L99.6435 203.28L96.4874 205.103L93.5881 203.429L96.7442 201.607L90.7551 198.149L92.4615 197.02L108.151 194.983L111.083 196.676L101.98 201.932ZM95.8496 198.393L99.0802 200.258L104.241 197.278L103.719 197.36L95.8496 198.393ZM115.555 209.138C113.533 210.305 111.57 210.957 109.665 211.094C107.765 211.228 106.009 210.83 104.397 209.899C102.806 208.98 102.113 207.974 102.317 206.881C102.527 205.79 103.601 204.673 105.54 203.528L108.224 201.979C110.261 200.802 112.23 200.153 114.13 200.032C116.035 199.908 117.783 200.305 119.374 201.223C120.964 202.141 121.657 203.147 121.453 204.241C121.254 205.331 120.183 206.447 118.239 207.589L115.555 209.138ZM115.604 205.762C116.814 205.063 117.526 204.461 117.742 203.954C117.963 203.444 117.722 202.986 117.021 202.581C116.342 202.189 115.577 202.05 114.726 202.165C113.876 202.28 112.885 202.654 111.752 203.289L108.207 205.336C107.014 206.025 106.288 206.629 106.028 207.149C105.78 207.668 106.015 208.135 106.733 208.55C107.439 208.958 108.226 209.093 109.093 208.956C109.966 208.816 110.979 208.419 112.134 207.765L115.604 205.762ZM125.535 215.531L127.191 216.488L124.855 217.837L123.199 216.88L120.043 218.702L117.143 217.028L120.299 215.206L114.31 211.748L116.017 210.62L131.706 208.582L134.639 210.275L125.535 215.531ZM119.405 211.992L122.635 213.857L127.796 210.878L127.274 210.959L119.405 211.992Z" fill="#0D1421"/>
<g clip-path="url(#clip3_19_2)">
<path d="M166.787 182L145.136 182M155.962 175.75L155.962 188.25M171.117 193.25C160.292 199.5 147.301 198.25 135.155 194.862C134.524 194.682 134.019 194.382 133.726 194.012C127.816 187 125.651 179.5 136.476 173.25L151.631 164.5C152.206 164.168 152.984 163.982 153.796 163.982C154.608 163.982 155.387 164.168 155.962 164.5C160.292 167 168.302 168.625 175.36 168.9C176.211 168.939 177.01 169.151 177.613 169.499C178.216 169.848 178.585 170.309 178.651 170.8C179.128 174.9 181.942 179.5 186.272 182C186.847 182.332 187.169 182.781 187.169 183.25C187.169 183.719 186.847 184.168 186.272 184.5L171.117 193.25Z" stroke="#EE495B" stroke-width="4" stroke-linecap="round" stroke-linejoin="round"/>
</g>
<path d="M247.98 116.932L249.636 117.888L247.3 119.237L245.644 118.28L242.487 120.103L239.588 118.429L242.744 116.607L236.755 113.149L238.462 112.02L254.151 109.983L257.083 111.676L247.98 116.932ZM241.85 113.393L245.08 115.258L250.241 112.278L249.719 112.36L241.85 113.393ZM261.555 124.138C259.533 125.305 257.57 125.957 255.665 126.094C253.765 126.228 252.009 125.83 250.397 124.899C248.806 123.98 248.113 122.974 248.317 121.881C248.527 120.79 249.601 119.673 251.54 118.528L254.224 116.979C256.261 115.802 258.23 115.153 260.13 115.032C262.035 114.908 263.783 115.305 265.374 116.223C266.964 117.141 267.657 118.147 267.453 119.241C267.254 120.331 266.183 121.447 264.239 122.589L261.555 124.138ZM261.604 120.762C262.814 120.063 263.526 119.461 263.742 118.954C263.963 118.444 263.722 117.986 263.021 117.581C262.342 117.189 261.577 117.05 260.726 117.165C259.876 117.28 258.885 117.654 257.752 118.289L254.207 120.336C253.014 121.025 252.288 121.629 252.028 122.149C251.78 122.668 252.015 123.135 252.733 123.55C253.439 123.958 254.226 124.093 255.093 123.956C255.966 123.816 256.979 123.419 258.134 122.765L261.604 120.762ZM271.535 130.531L273.191 131.488L270.855 132.837L269.199 131.88L266.043 133.702L263.143 132.028L266.299 130.206L260.31 126.748L262.017 125.62L277.706 123.582L280.639 125.275L271.535 130.531ZM265.405 126.992L268.635 128.857L273.796 125.878L273.274 125.959L265.405 126.992Z" fill="#0D1421"/>
<g clip-path="url(#clip4_19_2)">
<path d="M312.787 97L291.136 97M301.962 90.75L301.962 103.25M317.117 108.25C306.292 114.5 293.301 113.25 281.155 109.863C280.524 109.682 280.019 109.382 279.726 109.013C273.816 102 271.651 94.5 282.476 88.25L297.631 79.5C298.206 79.1685 298.984 78.9822 299.796 78.9822C300.608 78.9822 301.387 79.1685 301.962 79.5C306.292 82 314.302 83.625 321.36 83.9C322.211 83.9386 323.01 84.1511 323.613 84.4995C324.216 84.8478 324.585 85.3089 324.651 85.8C325.128 89.9 327.942 94.5 332.272 97C332.847 97.3315 333.169 97.7812 333.169 98.25C333.169 98.7189 332.847 99.1685 332.272 99.5L317.117 108.25Z" stroke="#EE495B" stroke-width="4" stroke-linecap="round" stroke-linejoin="round"/>
</g>
<path d="M159.98 368.932L161.636 369.888L159.3 371.237L157.644 370.28L154.487 372.103L151.588 370.429L154.744 368.607L148.755 365.149L150.462 364.02L166.151 361.983L169.083 363.676L159.98 368.932ZM153.85 365.393L157.08 367.258L162.241 364.278L161.719 364.36L153.85 365.393ZM173.555 376.138C171.533 377.305 169.57 377.957 167.665 378.094C165.765 378.228 164.009 377.83 162.397 376.899C160.806 375.98 160.113 374.974 160.317 373.881C160.527 372.79 161.601 371.673 163.54 370.528L166.224 368.979C168.261 367.802 170.23 367.153 172.13 367.032C174.035 366.908 175.783 367.305 177.374 368.223C178.964 369.141 179.657 370.147 179.453 371.241C179.254 372.331 178.183 373.447 176.239 374.589L173.555 376.138ZM173.604 372.762C174.814 372.063 175.526 371.461 175.742 370.954C175.963 370.444 175.722 369.986 175.021 369.581C174.342 369.189 173.577 369.05 172.726 369.165C171.876 369.28 170.885 369.654 169.752 370.289L166.207 372.336C165.014 373.025 164.288 373.629 164.028 374.149C163.78 374.668 164.015 375.135 164.733 375.55C165.439 375.958 166.226 376.093 167.093 375.956C167.966 375.816 168.979 375.419 170.134 374.765L173.604 372.762ZM183.535 382.531L185.191 383.488L182.855 384.837L181.199 383.88L178.043 385.702L175.143 384.028L178.299 382.206L172.31 378.748L174.017 377.62L189.706 375.582L192.639 377.275L183.535 382.531ZM177.405 378.992L180.635 380.857L185.796 377.878L185.274 377.959L177.405 378.992Z" fill="#0D1421"/>
<g clip-path="url(#clip5_19_2)">
<path d="M224.787 349L203.136 349M213.962 342.75L213.962 355.25M229.117 360.25C218.292 366.5 205.301 365.25 193.155 361.863C192.524 361.682 192.019 361.382 191.726 361.013C185.816 354 183.651 346.5 194.476 340.25L209.631 331.5C210.206 331.168 210.984 330.982 211.796 330.982C212.608 330.982 213.387 331.168 213.962 331.5C218.292 334 226.302 335.625 233.36 335.9C234.211 335.939 235.01 336.151 235.613 336.499C236.216 336.848 236.585 337.309 236.651 337.8C237.128 341.9 239.942 346.5 244.272 349C244.847 349.332 245.169 349.781 245.169 350.25C245.169 350.719 244.847 351.168 244.272 351.5L229.117 360.25Z" stroke="#EE495B" stroke-width="4" stroke-linecap="round" stroke-linejoin="round"/>
</g>
<path d="M453.98 369.932L455.636 370.888L453.3 372.237L451.644 371.28L448.487 373.103L445.588 371.429L448.744 369.607L442.755 366.149L444.462 365.02L460.151 362.983L463.083 364.676L453.98 369.932ZM447.85 366.393L451.08 368.258L456.241 365.278L455.719 365.36L447.85 366.393ZM467.555 377.138C465.533 378.305 463.57 378.957 461.665 379.094C459.765 379.228 458.009 378.83 456.397 377.899C454.806 376.98 454.113 375.974 454.317 374.881C454.527 373.79 455.601 372.673 457.54 371.528L460.224 369.979C462.261 368.802 464.23 368.153 466.13 368.032C468.035 367.908 469.783 368.305 471.374 369.223C472.964 370.141 473.657 371.147 473.453 372.241C473.254 373.331 472.183 374.447 470.239 375.589L467.555 377.138ZM467.604 373.762C468.814 373.063 469.526 372.461 469.742 371.954C469.963 371.444 469.722 370.986 469.021 370.581C468.342 370.189 467.577 370.05 466.726 370.165C465.876 370.28 464.885 370.654 463.752 371.289L460.207 373.336C459.014 374.025 458.288 374.629 458.028 375.149C457.78 375.668 458.015 376.135 458.733 376.55C459.439 376.958 460.226 377.093 461.093 376.956C461.966 376.816 462.979 376.419 464.134 375.765L467.604 373.762ZM477.535 383.531L479.191 384.488L476.855 385.837L475.199 384.88L472.043 386.702L469.143 385.028L472.299 383.206L466.31 379.748L468.017 378.62L483.706 376.582L486.639 378.275L477.535 383.531ZM471.405 379.992L474.635 381.857L479.796 378.878L479.274 378.959L471.405 379.992Z" fill="#0D1421"/>
<g clip-path="url(#clip6_19_2)">
<path d="M518.787 350L497.136 350M507.961 343.75L507.961 356.25M523.117 361.25C512.292 367.5 499.301 366.25 487.155 362.863C486.524 362.682 486.019 362.382 485.726 362.013C479.816 355 477.65 347.5 488.476 341.25L503.631 332.5C504.205 332.168 504.984 331.982 505.796 331.982C506.608 331.982 507.387 332.168 507.961 332.5C512.292 335 520.302 336.625 527.36 336.9C528.211 336.939 529.01 337.151 529.613 337.499C530.216 337.848 530.584 338.309 530.651 338.8C531.128 342.9 533.942 347.5 538.272 350C538.846 350.332 539.169 350.781 539.169 351.25C539.169 351.719 538.846 352.168 538.272 352.5L523.117 361.25Z" stroke="#EE495B" stroke-width="4" stroke-linecap="round" stroke-linejoin="round"/>
</g>
<g clip-path="url(#clip7_19_2)">
<path d="M360.787 453L339.136 453M349.962 446.75L349.962 459.25M365.117 464.25C354.292 470.5 341.301 469.25 329.155 465.863C328.524 465.682 328.019 465.382 327.726 465.013C321.816 458 319.651 450.5 330.476 444.25L345.631 435.5C346.206 435.168 346.984 434.982 347.796 434.982C348.608 434.982 349.387 435.168 349.962 435.5C354.292 438 362.302 439.625 369.36 439.9C370.211 439.939 371.01 440.151 371.613 440.499C372.216 440.848 372.585 441.309 372.651 441.8C373.128 445.9 375.942 450.5 380.272 453C380.847 453.332 381.169 453.781 381.169 454.25C381.169 454.719 380.847 455.168 380.272 455.5L365.117 464.25Z" stroke="#EE495B" stroke-width="4" stroke-linecap="round" stroke-linejoin="round"/>
</g>
<defs>
<linearGradient id="paint0_linear_19_2" x1="202" y1="21416.4" x2="128205" y2="29330.5" gradientUnits="userSpaceOnUse">
<stop stop-color="#FFFCFD"/>
<stop offset="1" stop-color="#CBBBB8"/>
</linearGradient>
<linearGradient id="paint1_linear_19_2" x1="62879.3" y1="30592.1" x2="126089" y2="38717.1" gradientUnits="userSpaceOnUse">
<stop stop-color="white"/>
<stop offset="1" stop-color="#ECE4E3"/>
</linearGradient>
<linearGradient id="paint2_linear_19_2" x1="56" y1="21499.4" x2="128059" y2="29413.5" gradientUnits="userSpaceOnUse">
<stop stop-color="#FFFCFD"/>
<stop offset="1" stop-color="#CBBBB8"/>
</linearGradient>
<linearGradient id="paint3_linear_19_2" x1="62733.3" y1="30675.1" x2="125943" y2="38800.1" gradientUnits="userSpaceOnUse">
<stop stop-color="white"/>
<stop offset="1" stop-color="#ECE4E3"/>
</linearGradient>
<linearGradient id="paint4_linear_19_2" x1="529.595" y1="26733.9" x2="159398" y2="36627.2" gradientUnits="userSpaceOnUse">
<stop stop-color="#FFFCFD"/>
<stop offset="1" stop-color="#CBBBB8"/>
</linearGradient>
<linearGradient id="paint5_linear_19_2" x1="78323.1" y1="37751.3" x2="156780" y2="47789.2" gradientUnits="userSpaceOnUse">
<stop stop-color="white"/>
<stop offset="1" stop-color="#ECE4E3"/>
</linearGradient>
<linearGradient id="paint6_linear_19_2" x1="78323.1" y1="37751.3" x2="156780" y2="47789.2" gradientUnits="userSpaceOnUse">
<stop stop-color="white"/>
<stop offset="1" stop-color="#ECE4E3"/>
</linearGradient>
<linearGradient id="paint7_linear_19_2" x1="529.595" y1="26733.9" x2="159398" y2="36627.2" gradientUnits="userSpaceOnUse">
<stop stop-color="#FFFCFD"/>
<stop offset="1" stop-color="#CBBBB8"/>
</linearGradient>
<linearGradient id="paint8_linear_19_2" x1="78323.1" y1="37751.3" x2="156780" y2="47789.2" gradientUnits="userSpaceOnUse">
<stop stop-color="white"/>
<stop offset="1" stop-color="#ECE4E3"/>
</linearGradient>
<linearGradient id="paint9_linear_19_2" x1="78323.1" y1="37751.3" x2="156780" y2="47789.2" gradientUnits="userSpaceOnUse">
<stop stop-color="white"/>
<stop offset="1" stop-color="#ECE4E3"/>
</linearGradient>
<linearGradient id="paint10_linear_19_2" x1="388.595" y1="26820.9" x2="159257" y2="36714.2" gradientUnits="userSpaceOnUse">
<stop stop-color="#FFFCFD"/>
<stop offset="1" stop-color="#CBBBB8"/>
</linearGradient>
<linearGradient id="paint11_linear_19_2" x1="78182.1" y1="37838.3" x2="156639" y2="47876.2" gradientUnits="userSpaceOnUse">
<stop stop-color="white"/>
<stop offset="1" stop-color="#ECE4E3"/>
</linearGradient>
<linearGradient id="paint12_linear_19_2" x1="240.595" y1="26906.9" x2="159109" y2="36800.2" gradientUnits="userSpaceOnUse">
<stop stop-color="#FFFCFD"/>
<stop offset="1" stop-color="#CBBBB8"/>
</linearGradient>
<linearGradient id="paint13_linear_19_2" x1="78034.1" y1="37924.3" x2="156491" y2="47962.2" gradientUnits="userSpaceOnUse">
<stop stop-color="white"/>
<stop offset="1" stop-color="#ECE4E3"/>
</linearGradient>
<linearGradient id="paint14_linear_19_2" x1="91.595" y1="26992.9" x2="158960" y2="36886.2" gradientUnits="userSpaceOnUse">
<stop stop-color="#FFFCFD"/>
<stop offset="1" stop-color="#CBBBB8"/>
</linearGradient>
<linearGradient id="paint15_linear_19_2" x1="77885.1" y1="38010.3" x2="156342" y2="48048.2" gradientUnits="userSpaceOnUse">
<stop stop-color="white"/>
<stop offset="1" stop-color="#ECE4E3"/>
</linearGradient>
<linearGradient id="paint16_linear_19_2" x1="390.595" y1="26995.9" x2="159259" y2="36889.2" gradientUnits="userSpaceOnUse">
<stop stop-color="#FFFCFD"/>
<stop offset="1" stop-color="#CBBBB8"/>
</linearGradient>
<linearGradient id="paint17_linear_19_2" x1="78184.1" y1="38013.3" x2="156641" y2="48051.2" gradientUnits="userSpaceOnUse">
<stop stop-color="white"/>
<stop offset="1" stop-color="#ECE4E3"/>
</linearGradient>
<linearGradient id="paint18_linear_19_2" x1="303.337" y1="16131.6" x2="70221.9" y2="21950.2" gradientUnits="userSpaceOnUse">
<stop stop-color="#FFFCFD"/>
<stop offset="1" stop-color="#CBBBB8"/>
</linearGradient>
<linearGradient id="paint19_linear_19_2" x1="34591.4" y1="16274.7" x2="69187.6" y2="20498.5" gradientUnits="userSpaceOnUse">
<stop stop-color="white"/>
<stop offset="1" stop-color="#ECE4E3"/>
</linearGradient>
<clipPath id="clip0_19_2">
<rect width="60" height="60" fill="white" transform="matrix(0.866025 0.5 -0.866025 0.5 648.961 61)"/>
</clipPath>
<clipPath id="clip1_19_2">
<rect width="60" height="60" fill="white" transform="matrix(0.866025 0.5 -0.866025 0.5 505.961 145)"/>
</clipPath>
<clipPath id="clip2_19_2">
<rect width="60" height="60" fill="white" transform="matrix(0.866025 0.5 -0.866025 0.5 359.962 235)"/>
</clipPath>
<clipPath id="clip3_19_2">
<rect width="60" height="60" fill="white" transform="matrix(0.866025 0.5 -0.866025 0.5 155.962 152)"/>
</clipPath>
<clipPath id="clip4_19_2">
<rect width="60" height="60" fill="white" transform="matrix(0.866025 0.5 -0.866025 0.5 301.962 67)"/>
</clipPath>
<clipPath id="clip5_19_2">
<rect width="60" height="60" fill="white" transform="matrix(0.866025 0.5 -0.866025 0.5 213.962 319)"/>
</clipPath>
<clipPath id="clip6_19_2">
<rect width="60" height="60" fill="white" transform="matrix(0.866025 0.5 -0.866025 0.5 507.961 320)"/>
</clipPath>
<clipPath id="clip7_19_2">
<rect width="60" height="60" fill="white" transform="matrix(0.866025 0.5 -0.866025 0.5 349.962 423)"/>
</clipPath>
</defs>
</svg>
